<svg width="30" height="30" viewBox="0 0 30 30" fill="none" xmlns="http://www.w3.org/2000/svg">
<path d="M28.3214 23.0738C28.3566 22.9684 28.3766 22.8554 28.3766 22.738V10.4031C28.3766 9.81833 27.9023 9.34439 27.3176 9.34439H21.4236V22.4735C21.4236 22.6843 21.3855 22.8859 21.3182 23.0738H20.6268C20.6621 22.9684 20.6821 22.8554 20.6821 22.738V5.79696C20.6821 5.21222 20.2078 4.73828 19.6231 4.73828H10.3763C9.79155 4.73828 9.3176 5.21222 9.3176 5.79696V22.738C9.3176 22.8554 9.3376 22.9684 9.37284 23.0738H8.68176C8.61447 22.8859 8.57637 22.6843 8.57637 22.4735V9.34439H2.82366C2.23893 9.34439 1.76499 9.81833 1.76499 10.4031V22.738C1.76499 22.8554 1.78498 22.9684 1.8199 23.0738H0V25.2623H30V23.0738H28.3214ZM4.94101 18.7496H3.42331V17.2322H4.94101V18.7496V18.7496ZM4.94101 16.0853H3.42331V14.5676H4.94101V16.0853V16.0853ZM4.94101 13.5089H3.42331V11.9912H4.94101V13.5089V13.5089ZM7.30596 18.7496H5.78826V17.2322H7.30596V18.7496ZM7.30596 16.0853H5.78826V14.5676H7.30596V16.0853ZM7.30596 13.5089H5.78826V11.9912H7.30596V13.5089ZM17.3559 23.003H12.9V17.444H17.3559V23.003ZM14.9998 12.6791C12.9387 12.6791 11.2677 11.0081 11.2677 8.94695C11.2677 6.88547 12.939 5.21445 14.9998 5.21445C17.0613 5.21445 18.7323 6.88547 18.7323 8.94695C18.7323 11.0084 17.0613 12.6791 14.9998 12.6791ZM24.6352 18.7496H23.1178V17.2322H24.6352V18.7496ZM24.6352 16.0853H23.1178V14.5676H24.6352V16.0853ZM24.6352 13.5089H23.1178V11.9912H24.6352V13.5089ZM26.9998 18.7496H25.4825V17.2322H26.9998V18.7496ZM26.9998 16.0853H25.4825V14.5676H26.9998V16.0853ZM26.9998 13.5089H25.4825V11.9912H26.9998V13.5089ZM15.9261 8.02065H17.3556V9.87325H15.9261V11.3033H14.0735V9.87325H12.6441V8.02065H14.0735V6.5912H15.9261V8.02065Z" fill="#144175"/>
</svg>
